<?xml version="1.0" encoding="utf-8"?>
<!-- Generator: Adobe Illustrator 25.2.1, SVG Export Plug-In . SVG Version: 6.00 Build 0)  -->
<svg version="1.1" id="Layer_1" xmlns="http://www.w3.org/2000/svg" xmlns:xlink="http://www.w3.org/1999/xlink" x="0px" y="0px"
	 viewBox="0 0 679.5 136.4" style="enable-background:new 0 0 679.5 136.4;" xml:space="preserve">
<style type="text/css">
	.st0{fill:#FFFFFF;}
	.st1{font-family:'ArialMT';}
	.st2{font-size:49.11px;}
	.st3{fill:none;stroke:#FFFFFF;stroke-width:4.0925;stroke-miterlimit:10;}
</style>
<g>
	<text transform="matrix(1 0 0 1 67.9342 51.853)" class="st0 st1 st2">7</text>
	<text transform="matrix(1 0 0 1 56.5573 110.7847)" class="st0 st1 st2">6x</text>
	<text transform="matrix(1 0 0 1 119.0905 80.5015)" class="st0 st1 st2">+</text>
	<text transform="matrix(1 0 0 1 335.0924 80.5015)" class="st0 st1 st2">e</text>
	<text transform="matrix(1 0 0 1 359.5651 80.5015)" class="st0 st1 st2">x</text>
	<text transform="matrix(1 0 0 1 382.9342 80.5015)" class="st0 st1 st2">tr</text>
	<text transform="matrix(1 0 0 1 470.2272 80.5015)" class="st0 st1 st2">x</text>
	<text transform="matrix(1 0 0 1 527.3991 80.5015)" class="st0 st1 st2">[2,8]</text>
	<text transform="matrix(1 0 0 1 154.776 51.853)" class="st0 st1 st2">6x</text>
	<text transform="matrix(1 0 0 1 166.153 110.7847)" class="st0 st1 st2">7</text>
	<line class="st3" x1="227.3" y1="66.9" x2="297" y2="66.9"/>
	<polygon class="st0" points="285.5,82.1 292,66.9 285.5,51.8 321.5,66.9 	"/>
	<line class="st3" x1="59.5" y1="66.2" x2="104.6" y2="66.2"/>
	<line class="st3" x1="157.8" y1="68.3" x2="202.8" y2="68.3"/>
	<path class="st0" d="M514.3,80.3v2c0,0-0.4,0.3-0.6,0.3c-3.1,0-6.1,0-9.1,0c-1,0-1.9-0.3-2.8-0.7c-3.5-1.5-5.2-6-4.5-11.7
		c0.5-4.5,2.7-7.4,6.7-7.8c3.4-0.2,6.9-0.2,10.3,0c0.5,1.4,0,2.1-1.6,2.1c-1.6,0-4.7,0-7.1,0c-3.7,0.2-5.5,2.4-5.5,6.5h14.2v2.5
		h-14.3c-0.7,3.1,1.3,6.1,4.4,6.8c0.4,0.1,0.9,0.1,1.4,0.1c1.4,0,2.9,0,4.1,0L514.3,80.3z"/>
</g>
</svg>
