<?xml version="1.0" encoding="utf-8"?>
<!-- Generator: Adobe Illustrator 25.2.1, SVG Export Plug-In . SVG Version: 6.00 Build 0)  -->
<svg version="1.1" id="Layer_1" xmlns="http://www.w3.org/2000/svg" xmlns:xlink="http://www.w3.org/1999/xlink" x="0px" y="0px"
	 viewBox="0 0 693.8 127.9" style="enable-background:new 0 0 693.8 127.9;" xml:space="preserve">
<style type="text/css">
	.st0{fill:#FFFFFF;}
	.st1{font-family:'ArialMT';}
	.st2{font-size:55.1082px;}
	.st3{letter-spacing:53;}
	.st4{font-size:31.871px;}
	.st5{fill:none;stroke:#FFFFFF;stroke-width:4.5922;stroke-miterlimit:10;}
	.st6{enable-background:new    ;}
</style>
<g>
	<text transform="matrix(1 0 0 1 10.3777 79.8445)" class="st0 st1 st2">-3</text>
	<text transform="matrix(1 0 0 1 55.5652 79.8445)" class="st0 st1 st2">x</text>
	<text transform="matrix(1 0 0 1 81.9265 79.8445)" class="st0 st1 st2">y+5</text>
	<text transform="matrix(1 0 0 1 171.5452 79.8445)" class="st0 st1 st2 st3"> </text>
	<text transform="matrix(1 0 0 1 239.3753 79.8445)" class="st0 st1 st2">e</text>
	<text transform="matrix(1 0 0 1 266.8382 79.8445)" class="st0 st1 st2">x</text>
	<text transform="matrix(1 0 0 1 293.0589 79.8445)" class="st0 st1 st2">t</text>
	<text transform="matrix(1 0 0 1 311.2894 79.8445)" class="st0 st1 st2">r</text>
	<text transform="matrix(1 0 0 1 326.3988 79.8445)" class="st0 st1 st2">.</text>
	<text transform="matrix(1 0 0 1 337.7894 79.8445)" class="st0 st1 st2 st3"> </text>
	<text transform="matrix(1 0 0 1 404.6996 79.8445)" class="st0 st1 st2">+ 2y - 4 = 0</text>
	<text transform="matrix(1 0 0 1 392.1837 28.1083)" class="st0 st1 st4">2</text>
	<text transform="matrix(1 0 0 1 511.0289 55.8286)" class="st0 st1 st4">2</text>
	<line class="st5" x1="177.3" y1="66" x2="212.5" y2="66"/>
	<line class="st5" x1="356" y1="63.1" x2="391.2" y2="63.1"/>
	<polygon class="st0" points="203.1,78.4 208.6,66 203.1,53.6 232.4,66 	"/>
	<text transform="matrix(1 0 0 1 355.7906 56.2619)" class="st6"><tspan x="0" y="0" class="st0 st1 st2">X </tspan><tspan x="0" y="53" class="st0 st1 st2">2</tspan></text>
</g>
</svg>
