<?xml version="1.0" encoding="utf-8"?>
<!-- Generator: Adobe Illustrator 25.2.1, SVG Export Plug-In . SVG Version: 6.00 Build 0)  -->
<svg version="1.1" id="Layer_1" xmlns="http://www.w3.org/2000/svg" xmlns:xlink="http://www.w3.org/1999/xlink" x="0px" y="0px"
	 viewBox="0 0 507.4 104.8" style="enable-background:new 0 0 507.4 104.8;" xml:space="preserve">
<style type="text/css">
	.st0{fill:#FFFFFF;}
	.st1{font-family:'ArialMT';}
	.st2{font-size:40.9597px;}
	.st3{fill:none;stroke:#FFFFFF;stroke-width:3.4133;stroke-miterlimit:10;}
</style>
<g>
	<g>
		<text transform="matrix(1 0 0 1 26.9891 38.758)" class="st0 st1 st2">7</text>
		<text transform="matrix(1 0 0 1 17.5008 87.9084)" class="st0 st1 st2">6x</text>
	</g>
	<text transform="matrix(1 0 0 1 69.6551 62.6505)" class="st0 st1 st2">+</text>
	<g>
		<text transform="matrix(1 0 0 1 249.8094 62.6505)" class="st0 st1 st2">e</text>
		<text transform="matrix(1 0 0 1 270.2215 62.6505)" class="st0 st1 st2">x</text>
		<text transform="matrix(1 0 0 1 289.7117 62.6505)" class="st0 st1 st2">tr</text>
	</g>
	<text transform="matrix(1 0 0 1 362.5164 62.6505)" class="st0 st1 st2">x</text>
	<text transform="matrix(1 0 0 1 410.2 62.6505)" class="st0 st1 st2">[1,4]</text>
	<g>
		<text transform="matrix(1 0 0 1 99.4187 38.758)" class="st0 st1 st2">6x</text>
		<text transform="matrix(1 0 0 1 108.909 87.9084)" class="st0 st1 st2">7</text>
	</g>
	<line class="st3" x1="159.9" y1="51.3" x2="218.1" y2="51.3"/>
	<polygon class="st0" points="208.5,64 213.9,51.3 208.5,38.7 238.4,51.3 	"/>
	<line class="st3" x1="20" y1="50.7" x2="57.5" y2="50.7"/>
	<line class="st3" x1="101.9" y1="52.4" x2="139.5" y2="52.4"/>
	<path class="st0" d="M399.2,62.5v1.7c-0.1,0.1-0.3,0.2-0.5,0.2h-7.6c-0.8,0-1.6-0.2-2.4-0.6c-2.9-1.3-4.3-5-3.8-9.8
		c0.4-3.7,2.3-6.1,5.6-6.5c2.9-0.2,5.7-0.2,8.6,0c0.4,1.2,0,1.8-1.3,1.7c-1.3,0-3.9,0-5.9,0c-3.1,0.2-4.6,2-4.6,5.5h11.8v2h-11.9
		c-0.5,2.6,1.1,5.1,3.6,5.6c0,0,0,0,0,0c0.4,0,0.8,0,1.1,0h3.4L399.2,62.5z"/>
</g>
</svg>
