<svg id="Layer_1" data-name="Layer 1" xmlns="http://www.w3.org/2000/svg" viewBox="0 0 673.09 108.5"><defs><style>.cls-1,.cls-2,.cls-3,.cls-6{isolation:isolate;}.cls-1,.cls-2{font-size:55.11px;}.cls-1,.cls-2,.cls-3,.cls-5{fill:#fff;}.cls-1,.cls-2,.cls-3{font-family:ArialMT, Arial;}.cls-2{letter-spacing:0.98em;}.cls-3{font-size:31.87px;}.cls-4{fill:none;stroke:#fff;stroke-miterlimit:10;stroke-width:4.59px;}</style></defs><text class="cls-1" transform="translate(0 79.09)">-3</text><text class="cls-1" transform="translate(45.19 79.09)">x</text><text class="cls-1" transform="translate(71.55 79.09)">y+5</text><text class="cls-2" transform="translate(161.17 79.09)"> </text><text class="cls-1" transform="translate(229 79.09)">e</text><text class="cls-1" transform="translate(256.46 79.09)">x</text><text class="cls-1" transform="translate(282.68 79.09)">t</text><text class="cls-1" transform="translate(300.91 79.09)">r</text><text class="cls-1" transform="translate(316.02 79.09)">.</text><text class="cls-2" transform="translate(327.41 79.09)"> </text><text class="cls-1" transform="translate(394.32 79.09)">+ 2y - 4 = 0</text><text class="cls-3" transform="translate(381.81 27.35)">2</text><text class="cls-3" transform="translate(500.65 55.07)">2</text><line class="cls-4" x1="166.97" y1="65.25" x2="202.17" y2="65.25"/><line class="cls-4" x1="345.65" y1="62.35" x2="380.85" y2="62.35"/><polygon class="cls-5" points="192.76 77.65 198.26 65.25 192.76 52.85 222.06 65.25 192.76 77.65"/><g class="cls-6"><path class="cls-5" d="M356,56.26,371.29,35.7,357.84,16.81h6.21l7.16,10.12a53.65,53.65,0,0,1,3.17,4.85,49.45,49.45,0,0,1,3.13-4.5l7.93-10.47h5.68l-13.86,18.6L392.2,56.26h-6.46l-9.93-14.07c-.56-.81-1.13-1.69-1.72-2.64-.88,1.44-1.51,2.42-1.89,3l-9.9,13.75Z" transform="translate(-10.38 -0.76)"/><path class="cls-5" d="M383.53,104.61v4.65H357.46a8.55,8.55,0,0,1,.56-3.36,17.91,17.91,0,0,1,3.19-5.25,50.2,50.2,0,0,1,6.34-6q6.43-5.28,8.69-8.36a10,10,0,0,0,2.26-5.82,6.45,6.45,0,0,0-2.06-4.86,7.42,7.42,0,0,0-5.37-2,7.55,7.55,0,0,0-5.59,2.1,8,8,0,0,0-2.13,5.81l-5-.51q.51-5.57,3.85-8.49c2.23-1.94,5.21-2.92,9-2.92s6.78,1,9,3.15a10.32,10.32,0,0,1,3.31,7.8,11.76,11.76,0,0,1-1,4.66,18.48,18.48,0,0,1-3.21,4.82A79.36,79.36,0,0,1,371.83,97c-2.91,2.44-4.77,4.09-5.6,5a15.72,15.72,0,0,0-2,2.63Z" transform="translate(-10.38 -0.76)"/></g></svg>